<?xml version="1.0" encoding="utf-8"?>
<!-- Generator: Adobe Illustrator 18.0.0, SVG Export Plug-In . SVG Version: 6.00 Build 0)  -->
<!DOCTYPE svg PUBLIC "-//W3C//DTD SVG 1.1//EN" "http://www.w3.org/Graphics/SVG/1.1/DTD/svg11.dtd">
<svg version="1.1" id="Layer_1" xmlns="http://www.w3.org/2000/svg" xmlns:xlink="http://www.w3.org/1999/xlink" x="0px" y="0px"
	 viewBox="0 0 122.4 111.2" enable-background="new 0 0 122.4 111.2" xml:space="preserve">
<g>
	<circle fill="#49C2D6" cx="61.2" cy="55.6" r="45.8"/>
	<g opacity="0.2">
		<path stroke="#FFFFFF" stroke-width="2.045" stroke-miterlimit="10" d="M37.5,65v9.2H42c0.4-2.8,2.7-4.5,5.7-4.5
			c3,0,5.5,2.2,5.7,4.5h15.8c0.5-2.2,2.6-4.7,5.6-4.7s5.6,2.4,6.1,4.7h3.8V65H37.5z"/>
		<circle stroke="#FFFFFF" stroke-width="2.3083" stroke-miterlimit="10" cx="47.7" cy="75.6" r="5.9"/>
		<path fill-rule="evenodd" clip-rule="evenodd" d="M45.2,75.4c0.1-1.3,1.2-2.4,2.6-2.3c1.3,0.1,2.4,1.2,2.3,2.6
			c-0.1,1.3-1.2,2.4-2.5,2.4C46.2,78,45.2,76.8,45.2,75.4z"/>
		<circle stroke="#FFFFFF" stroke-width="2.3083" stroke-miterlimit="10" cx="74.8" cy="75.6" r="5.9"/>
		<path fill-rule="evenodd" clip-rule="evenodd" d="M72.4,75.5c0.1-1.3,1.2-2.4,2.6-2.3c1.3,0.1,2.4,1.2,2.3,2.6
			c-0.1,1.3-1.2,2.4-2.5,2.4C73.4,78,72.3,76.9,72.4,75.5z"/>
		<path stroke="#FFFFFF" stroke-width="2.045" stroke-miterlimit="10" d="M36.1,58.3l-4.2-19.9c0,0-1.6-4,3.1-1.3
			c0,0,8.8,3.6,15.6-1.8c0,0,13.8,8.2,25.9,0c0,0,8.1,5.8,14.3,3.2c0,0,3.2-1.9,2,2l-6.1,18.1L36.1,58.3z"/>
		<path d="M43.5,38.1v7.5c0,0.6,0.5,1,1,1c0.6,0,1-0.5,1-1v-7.1C44.8,38.4,44.1,38.3,43.5,38.1z"/>
		<path d="M58.6,38.8v4.9c0,0.6,0.5,1,1,1c0.6,0,1-0.5,1-1v-4.3C59.9,39.3,59.2,39,58.6,38.8z"/>
		<polygon stroke="#FFFFFF" stroke-width="2.045" stroke-miterlimit="10" points="36.2,58.4 86.7,58.4 84.4,65.4 37.3,65.4 		"/>
		<path d="M65.1,39.6v5.1c0,0.6,0.5,1,1,1c0.6,0,1-0.5,1-1v-5.5C66.5,39.4,65.8,39.5,65.1,39.6z"/>
		<path d="M81.4,38.5V46c0,0.6,0.5,1,1,1c0.6,0,1-0.5,1-1v-7.1C82.7,38.8,82.1,38.7,81.4,38.5z"/>
		<path d="M37.3,70.5h-4.9c-0.6,0-1,0.5-1,1c0,0.6,0.5,1,1,1h4.3C36.9,71.8,37.1,71.1,37.3,70.5z"/>
	</g>
	<g>
		<path fill="none" stroke="#FFFFFF" stroke-width="2.045" stroke-miterlimit="10" d="M37.6,64.9v9.2h4.5c0.4-2.8,2.7-4.5,5.7-4.5
			c3,0,5.5,2.2,5.7,4.5h15.8c0.5-2.2,2.6-4.7,5.6-4.7s5.6,2.4,6.1,4.7h3.8v-9.2H37.6z"/>
		<circle fill="none" stroke="#FFFFFF" stroke-width="2.3083" stroke-miterlimit="10" cx="47.8" cy="75.5" r="5.9"/>
		<path fill-rule="evenodd" clip-rule="evenodd" fill="#FFFFFF" d="M45.4,75.3c0.1-1.3,1.2-2.4,2.6-2.3c1.3,0.1,2.4,1.2,2.3,2.6
			c-0.1,1.3-1.2,2.4-2.5,2.4C46.3,77.9,45.3,76.7,45.4,75.3z"/>
		<circle fill="none" stroke="#FFFFFF" stroke-width="2.3083" stroke-miterlimit="10" cx="75" cy="75.5" r="5.9"/>
		<path fill-rule="evenodd" clip-rule="evenodd" fill="#FFFFFF" d="M72.5,75.4c0.1-1.3,1.2-2.4,2.6-2.3c1.3,0.1,2.4,1.2,2.3,2.6
			C77.4,77,76.2,78,74.9,78C73.5,77.9,72.4,76.8,72.5,75.4z"/>
		<path fill="none" stroke="#FFFFFF" stroke-width="2.045" stroke-miterlimit="10" d="M36.3,58.2l-4.2-19.9c0,0-1.6-4,3.1-1.3
			c0,0,8.8,3.6,15.6-1.8c0,0,13.8,8.2,25.9,0c0,0,8.1,5.8,14.3,3.2c0,0,3.2-1.9,2,2l-6.1,18.1L36.3,58.2z"/>
		<path fill="#FFFFFF" d="M43.6,38v7.5c0,0.6,0.5,1,1,1c0.6,0,1-0.5,1-1v-7.1C44.9,38.3,44.2,38.2,43.6,38z"/>
		<path fill="#FFFFFF" d="M58.7,38.7v4.9c0,0.6,0.5,1,1,1c0.6,0,1-0.5,1-1v-4.3C60,39.2,59.3,39,58.7,38.7z"/>
		<polygon fill="none" stroke="#FFFFFF" stroke-width="2.045" stroke-miterlimit="10" points="36.3,58.4 86.8,58.4 84.5,65.3 
			37.5,65.3 		"/>
		<path fill="#FFFFFF" d="M65.2,39.5v5.1c0,0.6,0.5,1,1,1c0.6,0,1-0.5,1-1v-5.5C66.6,39.3,66,39.4,65.2,39.5z"/>
		<path fill="#FFFFFF" d="M81.6,38.5v7.5c0,0.6,0.5,1,1,1c0.6,0,1-0.5,1-1v-7.1C82.9,38.7,82.2,38.6,81.6,38.5z"/>
		<path fill="#FFFFFF" d="M37.5,70.4h-4.9c-0.6,0-1,0.5-1,1c0,0.6,0.5,1,1,1h4.3C37,71.7,37.2,71,37.5,70.4z"/>
	</g>
</g>
</svg>
